# xmcd CD database file
#
# Track frame offsets:
#	182
#	16485
#	35240
#	52287
#	69060
#	108332
#	125050
#	142762
#	157142
#	170485
#	215052
#	222917
#	246057
#
# Disc length: 3508 seconds
#
# Revision: 1
# Processed by: cddbd v1.5.2PL0 Copyright (c) Steve Scherf et al.
# Submitted via: CDex 1.70beta2
#
DISCID=c60db20d
DTITLE=Ludek Hulan - Blues for You
DYEAR=1978
DGENRE=Blues
TTITLE0=Parnas
TTITLE1=It's Only a Papermoon
TTITLE2=Posledni produkce
TTITLE3=My Soul is Yours
TTITLE4=Blues for You
TTITLE5=Sweetheart
TTITLE6=Walkin' My Shoes
TTITLE7=Little Jane
TTITLE8=Number One
TTITLE9=Bye Bye Blackbird
TTITLE10=Ma zlata
TTITLE11=It's Only a Papermoon
TTITLE12=Posledni produkce
EXTD=YEAR: 1978
EXTT0=
EXTT1=
EXTT2=
EXTT3=
EXTT4=
EXTT5=
EXTT6=
EXTT7=
EXTT8=
EXTT9=
EXTT10=
EXTT11=
EXTT12=
PLAYORDER=
